{
	"asset":{
		"generator":"Khronos glTF Blender I/O v4.4.56",
		"version":"2.0"
	},
	"scene":0,
	"scenes":[
		{
			"name":"Scene",
			"nodes":[
				0,
				1
			]
		}
	],
	"nodes":[
		{
			"mesh":0,
			"name":"BalloonShip",
			"translation":[
				0.6265281438827515,
				0,
				24.957826614379883
			]
		},
		{
			"name":"\u30d9\u30b8\u30a8\u5186",
			"scale":[
				25,
				1,
				25
			]
		}
	],
	"animations":[
		{
			"channels":[
				{
					"sampler":0,
					"target":{
						"node":0,
						"path":"translation"
					}
				},
				{
					"sampler":1,
					"target":{
						"node":0,
						"path":"rotation"
					}
				},
				{
					"sampler":2,
					"target":{
						"node":0,
						"path":"scale"
					}
				}
			],
			"name":"BalloonShip\u30a2\u30af\u30b7\u30e7\u30f3",
			"samplers":[
				{
					"input":8,
					"interpolation":"LINEAR",
					"output":9
				},
				{
					"input":8,
					"interpolation":"LINEAR",
					"output":10
				},
				{
					"input":11,
					"interpolation":"STEP",
					"output":12
				}
			]
		}
	],
	"materials":[
		{
			"doubleSided":true,
			"name":"Main",
			"pbrMetallicRoughness":{
				"baseColorFactor":[
					0.0009101425530388951,
					0.2917709946632385,
					0.2917708158493042,
					1
				],
				"metallicFactor":0.5,
				"roughnessFactor":0.5
			}
		},
		{
			"doubleSided":true,
			"name":"\u30de\u30c6\u30ea\u30a2\u30eb",
			"pbrMetallicRoughness":{
				"baseColorFactor":[
					0,
					0,
					0,
					1
				],
				"metallicFactor":0,
				"roughnessFactor":0.5
			}
		}
	],
	"meshes":[
		{
			"name":"\u7403",
			"primitives":[
				{
					"attributes":{
						"POSITION":0,
						"NORMAL":1,
						"TEXCOORD_0":2
					},
					"indices":3,
					"material":0
				},
				{
					"attributes":{
						"POSITION":4,
						"NORMAL":5,
						"TEXCOORD_0":6
					},
					"indices":7,
					"material":1
				}
			]
		}
	],
	"accessors":[
		{
			"bufferView":0,
			"componentType":5126,
			"count":1434,
			"max":[
				4.98376989364624,
				2.108430862426758,
				2.1083953380584717
			],
			"min":[
				-4.983768939971924,
				-2.3996429443359375,
				-2.1083953380584717
			],
			"type":"VEC3"
		},
		{
			"bufferView":1,
			"componentType":5126,
			"count":1434,
			"type":"VEC3"
		},
		{
			"bufferView":2,
			"componentType":5126,
			"count":1434,
			"type":"VEC2"
		},
		{
			"bufferView":3,
			"componentType":5123,
			"count":5034,
			"type":"SCALAR"
		},
		{
			"bufferView":4,
			"componentType":5126,
			"count":72,
			"max":[
				-0.14607270061969757,
				-1.948465347290039,
				0.15983863174915314
			],
			"min":[
				-1.3333454132080078,
				-2.3779945373535156,
				-0.15983928740024567
			],
			"type":"VEC3"
		},
		{
			"bufferView":5,
			"componentType":5126,
			"count":72,
			"type":"VEC3"
		},
		{
			"bufferView":6,
			"componentType":5126,
			"count":72,
			"type":"VEC2"
		},
		{
			"bufferView":7,
			"componentType":5123,
			"count":192,
			"type":"SCALAR"
		},
		{
			"bufferView":8,
			"componentType":5126,
			"count":250,
			"max":[
				10.416666666666666
			],
			"min":[
				0.041666666666666664
			],
			"type":"SCALAR"
		},
		{
			"bufferView":9,
			"componentType":5126,
			"count":250,
			"type":"VEC3"
		},
		{
			"bufferView":10,
			"componentType":5126,
			"count":250,
			"type":"VEC4"
		},
		{
			"bufferView":11,
			"componentType":5126,
			"count":2,
			"max":[
				10.416666666666666
			],
			"min":[
				0.041666666666666664
			],
			"type":"SCALAR"
		},
		{
			"bufferView":12,
			"componentType":5126,
			"count":2,
			"type":"VEC3"
		}
	],
	"bufferViews":[
		{
			"buffer":0,
			"byteLength":17208,
			"byteOffset":0,
			"target":34962
		},
		{
			"buffer":0,
			"byteLength":17208,
			"byteOffset":17208,
			"target":34962
		},
		{
			"buffer":0,
			"byteLength":11472,
			"byteOffset":34416,
			"target":34962
		},
		{
			"buffer":0,
			"byteLength":10068,
			"byteOffset":45888,
			"target":34963
		},
		{
			"buffer":0,
			"byteLength":864,
			"byteOffset":55956,
			"target":34962
		},
		{
			"buffer":0,
			"byteLength":864,
			"byteOffset":56820,
			"target":34962
		},
		{
			"buffer":0,
			"byteLength":576,
			"byteOffset":57684,
			"target":34962
		},
		{
			"buffer":0,
			"byteLength":384,
			"byteOffset":58260,
			"target":34963
		},
		{
			"buffer":0,
			"byteLength":1000,
			"byteOffset":58644
		},
		{
			"buffer":0,
			"byteLength":3000,
			"byteOffset":59644
		},
		{
			"buffer":0,
			"byteLength":4000,
			"byteOffset":62644
		},
		{
			"buffer":0,
			"byteLength":8,
			"byteOffset":66644
		},
		{
			"buffer":0,
			"byteLength":24,
			"byteOffset":66652
		}
	],
	"buffers":[
		{
			"byteLength":66676,
			"uri":"index.bin"
		}
	]
}
